<svg aria-hidden="true" style="position: absolute; width: 0; height: 0; overflow: hidden;" version="1.1" xmlns="http://www.w3.org/2000/svg" xmlns:xlink="http://www.w3.org/1999/xlink">
<defs>
<symbol id="icon-cream" viewBox="0 0 32 32">
<path d="M17.767 25.736l-1.37-1.37-1.361 1.361 1.378 1.371zM17.904 19.584l0.354-0.354c-0.359-0.046-0.735-0.179-1.091-0.382l0.736 0.736zM14.81 17.16c-0.022 0.033-0.047 0.074-0.070 0.116l-0.005 0.009c-0.204 0.378-0.583 0.737-1.039 0.983-0.027 0.015-0.054 0.028-0.081 0.042l1.283 1.282 1.364-1.368-1.275-1.275c-0.059 0.050-0.119 0.119-0.178 0.209zM15.757 31.013c0.371 0.459 0.79 0.425 1.154-0.103l-0.52-0.525-0.634 0.628zM15.039 19.735l1.357 1.357 1.366-1.366-1.358-1.358zM14.911 28.891l0.353 1.109c0.113 0.353 0.24 0.634 0.375 0.847l0.611-0.605-1.339-1.352zM19.982 21.662l0.412-1.295-0.854 0.854zM15.198 16.861c-0.005 0-0.010 0.001-0.016 0.001l0.673 0.673c-0.108-0.216-0.228-0.394-0.348-0.515-0.11-0.106-0.214-0.16-0.309-0.16zM16.271 27.239l-1.378-1.371-0.716 0.716 0.601 1.887 0.134 0.135zM15.042 22.728l1.354-1.354 1.354 1.354-1.354 1.354zM16.537 21.234l1.366-1.366 1.354 1.354-1.366 1.366zM12.039 19.726l1.365 1.365 1.352-1.355-1.335-1.335c-0.031 0.013-0.062 0.025-0.093 0.037l-1.289 1.289zM13.546 21.232l1.355 1.355 1.354-1.353-1.356-1.356zM12.103 20.073l0.561 1.76 0.599-0.601zM13.511 24.493l0.597 1.876 0.643-0.643zM16.555 27.238l1.255 1.248 0.654-2.054-0.555-0.555zM16.538 24.224l1.37 1.37 1.21-1.216 0.068-0.213-1.294-1.294zM13.536 24.235l1.357 1.35 1.362-1.362-1.354-1.353zM18.532 26.217l0.453-1.422-0.935 0.94zM18.033 22.728l1.221 1.221 0.66-2.072-0.515-0.515zM11.662 18.387l-0.002-0.001c-0.047-0.029-0.086-0.054-0.124-0.081l0.005 0.004 0.394 1.238 0.994-0.994c-0.149 0.030-0.295 0.045-0.437 0.045-0.308 0-0.588-0.071-0.83-0.21zM17.019 30.734c0.11-0.197 0.214-0.441 0.308-0.734l0.252-0.791-1.046 1.035 0.486 0.49zM15.052 28.749l1.34 1.353 1.318-1.305 0.031-0.096-1.328-1.321zM21.39 16.824c-0.204 0.839-0.657 1.52-1.291 1.939l0.612 0.612 0.791-2.484c-0.010-0.005-0.019-0.010-0.029-0.016-0.039-0.023-0.066-0.039-0.093-0.057l0.010 0.006zM13.405 21.374l-0.672 0.674 0.647 2.031 0.014 0.014 1.366-1.365zM18.747 19.236c-0.010 0.001-0.026 0.003-0.043 0.004l-0.005 0-0.009 0.001c-0.052 0.004-0.106 0.006-0.159 0.006l-0.007-0-0.478 0.478 1.354 1.353 1.128-1.128 0.115-0.362-0.72-0.72c-0.013 0.007-0.026 0.015-0.039 0.022-0.339 0.182-0.722 0.298-1.137 0.344z"></path>
<path d="M11.030 4.588c0.182-0.061 0.337-0.111 0.46-0.148 0.089-0.029 0.211-0.062 0.335-0.089l0.028-0.005 0.013-0.347c0.006-0.215 0.012-0.379 0.017-0.489 0-0.056 0.003-0.142 0.009-0.257 0.009-0.167 0.012-0.319 0.009-0.453 0-0.051-0.006-0.13-0.017-0.234-0.013-0.098-0.039-0.186-0.076-0.268l0.002 0.006c-0.006-0.012-0.013-0.023-0.022-0.033l0 0c-0.042 0.017-0.084 0.047-0.126 0.089-0.071 0.080-0.118 0.135-0.138 0.164s-0.065 0.103-0.135 0.221c-0.092 0.181-0.172 0.375-0.239 0.577-0.101 0.306-0.214 0.741-0.335 1.294l-0.010 0.043 0.004 0.001 0.219-0.073zM14.949 2.101c-0.040 0.070-0.075 0.152-0.101 0.237l-0.002 0.009c-0.040 0.14-0.096 0.356-0.166 0.64-0.066 0.263-0.121 0.605-0.161 1.018-0.005 0.077-0.010 0.139-0.015 0.184l0.010-0.005c0.164-0.145 0.302-0.315 0.409-0.504l0.005-0.010c0.098-0.187 0.178-0.391 0.239-0.605s0.091-0.421 0.091-0.613c0-0.085-0.017-0.181-0.052-0.283-0.043-0.119-0.092-0.182-0.139-0.182-0.035 0-0.076 0.040-0.119 0.115zM13.407 2.347c-0.040 0.14-0.096 0.356-0.166 0.64-0.066 0.263-0.121 0.605-0.161 1.018-0.005 0.077-0.010 0.139-0.015 0.184l0.010-0.005c0.164-0.145 0.302-0.315 0.409-0.504l0.005-0.010c0.098-0.187 0.178-0.391 0.239-0.605s0.091-0.421 0.091-0.613c0-0.085-0.017-0.181-0.052-0.283-0.043-0.119-0.092-0.182-0.139-0.182-0.035 0-0.076 0.040-0.119 0.115-0.040 0.070-0.075 0.152-0.101 0.237l-0.002 0.009zM15.263 7.728l0.076-0.061c0.246-0.246 0.433-0.528 0.554-0.837 0.039-0.095 0.076-0.209 0.109-0.338 0.057-0.199 0.089-0.428 0.089-0.665v-0c0-0.193-0.040-0.358-0.118-0.492-0.022-0.039-0.047-0.067-0.074-0.084-0.052 0.064-0.088 0.114-0.109 0.149s-0.046 0.098-0.076 0.187l-0.080 0.279c-0.023 0.069-0.055 0.178-0.095 0.324-0.073 0.255-0.147 0.603-0.219 1.036-0.026 0.184-0.045 0.324-0.055 0.413 0 0.004-0.001 0.014-0.008 0.044-0.002 0.007-0.003 0.015-0.003 0.024s0.001 0.015 0.002 0.022l-0-0.001 0.005-0.001zM13.191 8.369c-0.003 0.014-0.011 0.038-0.023 0.071-0.009 0.025-0.014 0.049-0.016 0.070 0.001-0 0.001-0 0.002-0 0.1-0.107 0.178-0.217 0.231-0.325 0.016-0.035 0.025-0.069 0.029-0.1l-0-0.014c0-0.025-0.008-0.033-0.013-0.036-0.040 0.005-0.080 0.041-0.118 0.107-0.038 0.065-0.069 0.14-0.090 0.22l-0.001 0.006zM19.142 7.752c0 0.064 0.006 0.123 0.019 0.176 0.069-0.055 0.121-0.119 0.154-0.191 0.022-0.058 0.034-0.11 0.034-0.154 0-0.027-0.002-0.040-0.004-0.046-0.009-0.028-0.021-0.049-0.037-0.064-0.014-0.014-0.029-0.021-0.045-0.021-0.023 0-0.043 0.011-0.062 0.033s-0.033 0.055-0.039 0.095c-0.013 0.053-0.020 0.111-0.020 0.172zM19.087 4.146c-0.025 0.050-0.038 0.101-0.038 0.151 0 0.022 0.001 0.039 0.003 0.050 0.031 0.011 0.054 0.020 0.068 0.029 0.018 0.007 0.043 0.026 0.029 0.073-0.016 0.043-0.024 0.075-0.025 0.096 0.053 0.072 0.113 0.125 0.178 0.16 0.064 0.034 0.131 0.049 0.199 0.045l0.005-0.005c-0 0 0-0 0-0.003l0.031-0.173c0.006-0.051 0.009-0.088 0.009-0.111 0-0.080-0.013-0.163-0.039-0.249-0.022-0.072-0.063-0.132-0.122-0.176-0.040-0.027-0.074-0.041-0.101-0.041-0.029 0-0.062 0.012-0.097 0.037-0.042 0.028-0.075 0.067-0.1 0.117zM18.991 9.458c0.036-0.081 0.054-0.175 0.054-0.279 0-0.042-0.006-0.104-0.017-0.182-0.045 0.015-0.097 0.043-0.155 0.086-0.065 0.047-0.108 0.083-0.127 0.105-0.041 0.050-0.061 0.104-0.061 0.161 0 0.073 0.031 0.143 0.091 0.21 0.027 0.027 0.056 0.042 0.086 0.045 0.054 0.010 0.1-0.074 0.13-0.146zM19.099 5.309l0 0c0.025 0.038 0.052 0.041 0.080 0.019l0.060-0.043 0.025-0.037c0.084-0.104 0.152-0.229 0.203-0.372l0.014-0.056-0.014-0.005c-0.133-0.017-0.253-0.071-0.354-0.16-0.001-0.001-0.003-0.003-0.013-0.006 0.003 0.001 0.003 0.001 0.002 0l-0.004-0.001c-0.022 0.101-0.038 0.229-0.049 0.381l-0.004 0.065 0.004 0.064c0.006 0.061 0.022 0.111 0.050 0.15zM17.21 7.359c0.086-0.138 0.149-0.272 0.186-0.398 0.034-0.126 0.059-0.222 0.074-0.287 0.058-0.295 0.105-0.54 0.139-0.728l0.063-0.388-0.041 0.031c-0.268 0.233-0.516 0.498-0.739 0.787-0.054 0.071-0.101 0.144-0.138 0.216-0.062 0.113-0.099 0.248-0.099 0.392 0 0.001 0 0.002 0 0.003v-0c0 0.117 0.025 0.242 0.073 0.37 0.028 0.072 0.077 0.133 0.147 0.181 0 0 0 0 0 0v0c0.018 0.013 0.034 0.019 0.049 0.019 0.005 0 0.015-0.001 0.035-0.008l0.165-0.055 0.085-0.135zM16.739 11.372c-0.011-0.075-0.026-0.16-0.045-0.254-0.008-0.034-0.025-0.091-0.051-0.172-0.035-0.106-0.066-0.188-0.101-0.269l0.008 0.021c-0.036-0.085-0.071-0.161-0.107-0.228s-0.065-0.105-0.087-0.113c-0.015 0.213-0.024 0.461-0.024 0.712 0 0.051 0 0.102 0.001 0.154l-0-0.008c0.004 0.29 0.008 0.57 0.011 0.841 0 0.102-0.001 0.232-0.003 0.392s-0.003 0.323-0.003 0.491c0 0.167 0.002 0.326 0.006 0.477s0.013 0.265 0.028 0.344c0.030-0.019 0.061-0.068 0.093-0.147s0.062-0.173 0.090-0.282c0.019-0.064 0.047-0.182 0.073-0.302l0.009-0.051c0.026-0.126 0.049-0.247 0.068-0.364s0.035-0.222 0.048-0.316c0.013-0.094 0.020-0.164 0.020-0.209v-0.265c0-0.079-0.003-0.155-0.008-0.228-0.007-0.088-0.016-0.165-0.028-0.24l0.002 0.017zM11.969 8.369c-0.003 0.014-0.011 0.038-0.023 0.071-0.009 0.025-0.014 0.049-0.016 0.070 0.001-0 0.002-0 0.002-0 0.1-0.107 0.178-0.217 0.231-0.325 0.016-0.035 0.025-0.069 0.029-0.1l-0-0.014c0-0.025-0.008-0.033-0.013-0.036-0.040 0.005-0.080 0.041-0.118 0.107-0.038 0.065-0.069 0.14-0.090 0.22l-0.001 0.006zM14.495 8.755c0.069-0.069 0.091-0.096 0.098-0.107 0.057-0.077 0.158-0.22 0.3-0.425l0.001-0.001c0.012-0.015 0.019-0.031 0.022-0.049l-0.005-0.161c-0.027-0.005-0.046-0.008-0.056-0.008-0.050 0-0.098 0.014-0.142 0.043-0.075 0.046-0.14 0.11-0.196 0.191-0.069 0.102-0.124 0.22-0.161 0.346l-0.002 0.009c-0.013 0.048-0.019 0.102-0.019 0.161 0 0.019 0.004 0.033 0.013 0.040s0.027 0.010 0.050 0.006c0.040-0.006 0.073-0.022 0.097-0.046zM19.080 11.415c-0.023 0.070-0.044 0.149-0.065 0.24s-0.040 0.178-0.056 0.262-0.029 0.144-0.037 0.178c-0.008 0.021-0.036 0.163-0.062 0.305l-0.017 0.113c0.004-0.054-0.022 0.094-0.047 0.242l-0.027 0.193c-0.024 0.132-0.042 0.291-0.050 0.453l-0 0.010c-0.008 0.15-0.019 0.301-0.034 0.451-0.008 0.071-0.021 0.148-0.039 0.228s-0.028 0.155-0.028 0.223c0 0.030 0.004 0.052 0.011 0.065s0.018 0.021 0.031 0.023c0.013 0.002 0.031 0.002 0.054 0s0.049-0.003 0.079-0.003c0.034 0 0.076 0.002 0.127 0.006s0.093 0.004 0.127 0c-0.001-0.068-0.002-0.147-0.002-0.227 0-0.195 0.004-0.389 0.011-0.582l-0.001 0.028c0.012-0.302 0.029-0.571 0.052-0.838l-0.004 0.063c0.004-0.030 0.007-0.088 0.011-0.175s0.007-0.186 0.011-0.299c0.004-0.113 0.007-0.231 0.008-0.355s0.004-0.238 0.006-0.341c0.002-0.103 0.003-0.191 0.003-0.262s-0.002-0.109-0.006-0.113c-0.015 0.008-0.034 0.046-0.056 0.116z"></path>
<path d="M25.251 9.7c0-4.979-4.054-9.033-9.034-9.033s-11.766 4.020-8.702 11.357c0.058 0.138 0.796 1.081 1.138 1.588 0.522 0.782 0.569 1.328 0.356 2.015-0.102 0.332-0.039 0.569 0.106 0.707 0.249 0.274 0.793 0.505 1.106 0.082 0.285-0.385 0.253-0.809 0.448-0.861 0.027-0.007 0.059-0.007 0.096 0.001 0.065 0.014 0.078 0.11 0.070 0.258-0.003 0.064-0.010 0.138-0.019 0.219-0.061 0.6-0.19 1.603 0.653 2.050 0.021 0.011 0.042 0.022 0.064 0.032 0.059 0.049 0.125 0.096 0.194 0.138l0.007 0.004c0.412 0.237 0.919 0.236 1.399 0.088 0.169-0.052 0.334-0.123 0.491-0.208 0.423-0.229 0.783-0.562 0.979-0.923 0.030-0.056 0.057-0.1 0.085-0.143l-0.004 0.007c0.122-0.186 0.247-0.296 0.372-0.341 0.187-0.068 0.376 0.006 0.553 0.177 0.143 0.143 0.277 0.346 0.392 0.585 0.089 0.178 0.219 0.359 0.379 0.531 0.011 0.013 0.023 0.025 0.035 0.038 0.046 0.050 0.092 0.096 0.14 0.141l0.001 0.001c0.485 0.461 1.172 0.836 1.835 0.882 0.095 0.007 0.19 0.007 0.284-0.001 0.018-0.001 0.035-0.003 0.053-0.005 0.411-0.046 0.771-0.16 1.083-0.328 0.073-0.040 0.132-0.074 0.188-0.111l-0.010 0.006c0.714-0.459 1.14-1.222 1.299-2.081 0.074 0.056 0.157 0.113 0.244 0.164l0.012 0.007c0.804 0.468 1.317 0.108 1.166-0.408-0.142-0.545 0.166-1.423 0.688-2.015 0.603-0.683 1.849-2.555 1.849-4.623zM16.642 6.575l0-0.001c0.058-0.105 0.119-0.196 0.187-0.28l-0.003 0.004c0.249-0.309 0.515-0.584 0.805-0.832l0.008-0.007c0.035-0.027 0.053-0.062 0.056-0.108 0.015-0.108 0.026-0.228 0.033-0.358 0.007-0.131 0.012-0.218 0.015-0.262-0-0.056 0.001-0.097 0.004-0.127 0-0.001 0-0.002 0-0.002 0-0.010-0.001-0.020-0.002-0.029l0 0.001-0.043 0.058c-0.143 0.195-0.298 0.354-0.461 0.474-0.026 0.020-0.068 0.048-0.128 0.084-0.049 0.025-0.095 0.037-0.138 0.037-0.089 0-0.161-0.039-0.216-0.115-0.048-0.066-0.075-0.146-0.081-0.238 0-0.1 0.012-0.206 0.035-0.313s0.051-0.207 0.083-0.294c0.028-0.076 0.074-0.114 0.135-0.114 0.026 0 0.059 0.010 0.102 0.032 0.055 0.032 0.081 0.078 0.077 0.135 0 0.061-0.003 0.108-0.009 0.141-0.038 0.157-0.067 0.29-0.087 0.397-0.009 0.047-0.019 0.117-0.030 0.208l0 0.032c0.022-0.001 0.031-0.002 0.034-0.003 0.081-0.032 0.11-0.045 0.119-0.051 0.132-0.078 0.247-0.169 0.341-0.272 0.081-0.089 0.161-0.19 0.239-0.3 0.030-0.046 0.045-0.094 0.045-0.14 0-0.050 0.001-0.088 0.004-0.115 0.013-0.064 0.052-0.078 0.084-0.078 0.111 0 0.142 0.064 0.149 0.117 0.017 0.098 0.028 0.174 0.031 0.223 0.014 0.154 0.022 0.296 0.022 0.424l-0.004 0.188 0.004 0.053 0.032-0.018 0.2-0.126c0.167-0.101 0.319-0.219 0.451-0.351l0.084-0.082c0.024-0.071 0.066-0.136 0.125-0.197-0.005-0.077 0.003-0.148 0.023-0.208 0.012-0.036 0.024-0.063 0.036-0.082 0.024-0.047 0.058-0.085 0.103-0.111 0.086-0.050 0.188-0.056 0.299 0.006 0.079 0.045 0.132 0.113 0.159 0.2 0.017 0.051 0.031 0.112 0.039 0.175l0.001 0.006c0.003 0.028 0.005 0.069 0.005 0.124 0 0.073-0.006 0.14-0.018 0.199-0.006 0.020-0.009 0.037-0.011 0.049-0.001 0.011-0.002 0.020-0.002 0.027 0.008 0.011 0.014 0.010 0.017 0.010 0.014-0.002 0.022-0.002 0.026-0.002 0.167-0.017 0.329-0.075 0.481-0.172 0.048-0.033 0.086-0.061 0.123-0.089l-0.007 0.005c0.009-0.074 0.021-0.152 0.035-0.234l0.022-0.131 0.013-0.049c0.010-0.032 0.022-0.054 0.038-0.066s0.039-0.018 0.072-0.018h0.044c0.043 0.007 0.073 0.021 0.091 0.042s0.027 0.053 0.027 0.094c-0.003 0.070-0.010 0.176-0.022 0.315-0.006 0.079-0.018 0.183-0.035 0.31l-0.039 0.314-0.004 0.056c0 0.041 0.006 0.079 0.017 0.112 0.010 0.042 0.027 0.047 0.039 0.047l0.036-0.008c0.044-0.014 0.089-0.039 0.134-0.076 0.097-0.077 0.175-0.163 0.232-0.254 0.035-0.049 0.081-0.126 0.139-0.23 0.016-0.029 0.023-0.060 0.020-0.092l-0.004-0.079c0-0.103 0.019-0.235 0.057-0.392-0-0.001-0-0.001-0-0.002 0-0.007 0.002-0.013 0.005-0.019l-0 0c0.019-0.072 0.057-0.108 0.113-0.108 0.013 0 0.031 0.003 0.056 0.009 0.018 0.003 0.038 0.011 0.060 0.023 0.048 0.026 0.072 0.062 0.072 0.108v0.109c0 0.046-0.001 0.084-0.004 0.111-0.012 0.107-0.022 0.182-0.031 0.232l-0.030 0.235c-0.006 0.068-0.007 0.123-0.004 0.163 0 0.031 0.007 0.063 0.021 0.096 0.013 0.036 0.035 0.053 0.070 0.053 0.029 0 0.055-0.006 0.076-0.018 0.023-0.013 0.057-0.034 0.099-0.063 0.081-0.062 0.152-0.131 0.213-0.208l0.002-0.002c0.055-0.066 0.125-0.153 0.194-0.24l0.020-0.026 0.074-0.096c0.006-0.006 0.011-0.012 0.014-0.018 0.005-0.009 0.013-0.017 0.024-0.024 0.010-0.005 0.020-0.006 0.030-0.004 0.011 0.002 0.022-0 0.028 0.007 0.002 0.002 0.003 0.005 0.003 0.009 0 0.001-0 0.002-0 0.003v-0c-0.006 0.034-0.023 0.070-0.051 0.106l-0.323 0.397c-0.033 0.039-0.087 0.090-0.163 0.154-0.035 0.033-0.078 0.059-0.126 0.077-0.029 0.015-0.065 0.023-0.105 0.023-0.086 0-0.154-0.033-0.203-0.097-0.050-0.059-0.090-0.13-0.12-0.213-0.003-0.017-0.017-0.060-0.041-0.129-0.004 0.004-0.007 0.009-0.010 0.014-0.007 0.011-0.012 0.019-0.015 0.025-0.076 0.146-0.159 0.265-0.247 0.352-0.047 0.044-0.097 0.086-0.15 0.125l-0.004 0.003c-0.049 0.034-0.098 0.051-0.148 0.051-0.106 0.006-0.189-0.037-0.247-0.129-0.036-0.057-0.061-0.127-0.076-0.21-0.012-0.046-0.018-0.1-0.018-0.159 0-0.032 0.003-0.078 0.009-0.137 0.002-0.048 0.006-0.101 0.012-0.158-0.045 0.033-0.098 0.067-0.152 0.099l-0.009 0.005c-0.084 0.048-0.182 0.086-0.285 0.107l-0.006 0.001c-0.007 0.002-0.035 0.007-0.19 0.025l-0.019 0.041c-0.038 0.14-0.092 0.262-0.161 0.374l0.003-0.006c-0.028 0.046-0.058 0.085-0.094 0.12l0-0c-0.040 0.046-0.089 0.069-0.145 0.069-0.013 0-0.034-0.003-0.064-0.009-0.049-0.009-0.091-0.029-0.124-0.060-0.112-0.083-0.176-0.191-0.188-0.323-0.006-0.058-0.009-0.104-0.009-0.136 0-0.055 0.005-0.112 0.014-0.169-0.133 0.122-0.268 0.227-0.403 0.312l-0.292 0.187c-0.031 0.018-0.048 0.045-0.050 0.081-0.006 0.162-0.021 0.327-0.046 0.492s-0.059 0.355-0.103 0.57c-0.041 0.201-0.073 0.345-0.096 0.441-0.018 0.062-0.046 0.149-0.088 0.267-0.059 0.147-0.146 0.283-0.26 0.406-0.103 0.115-0.243 0.186-0.414 0.209-0.011 0.003-0.029 0.004-0.050 0.004-0.072 0-0.141-0.023-0.204-0.068-0.095-0.068-0.159-0.155-0.188-0.256-0.038-0.126-0.056-0.24-0.053-0.34 0-0.155 0.036-0.31 0.106-0.459zM21.876 9.239c0 0.033-0.010 0.065-0.030 0.095-0.043 0.063-0.11 0.095-0.2 0.095-0.067 0-0.123-0.017-0.17-0.050-0.043-0.033-0.065-0.070-0.065-0.11 0-0.023 0.007-0.047 0.020-0.070 0.017-0.030 0.043-0.063 0.080-0.1 0.020-0.020 0.040-0.030 0.060-0.030 0.033-0.007 0.057-0.010 0.070-0.010 0.067 0 0.123 0.022 0.17 0.065 0.043 0.030 0.065 0.068 0.065 0.115zM19.372 9.159c0 0.051-0.005 0.102-0.015 0.152-0.024 0.155-0.101 0.284-0.23 0.382-0.042 0.032-0.089 0.048-0.138 0.048-0.086 0-0.171-0.030-0.255-0.090s-0.136-0.146-0.153-0.256c-0.003-0.009-0.005-0.026-0.005-0.047 0-0.049 0.011-0.092 0.032-0.127 0.030-0.061 0.066-0.107 0.106-0.138 0.038-0.030 0.102-0.071 0.189-0.121l0.105-0.062c0.005-0.016 0.008-0.030 0.008-0.041 0-0.019-0.002-0.034-0.005-0.047-0.004-0.015-0.007-0.026-0.011-0.038l0.001 0.004c-0.027-0.139-0.066-0.308-0.115-0.505-0.001-0.002-0.002-0.006-0.002-0.010l-0-0.002c-0.053 0.073-0.057 0.077-0.059 0.078-0.156 0.213-0.321 0.4-0.502 0.572l-0.002 0.002c-0.047 0.040-0.113 0.094-0.195 0.16-0.060 0.039-0.11 0.058-0.153 0.058-0.025 0-0.043-0.002-0.054-0.006-0.109-0.031-0.184-0.085-0.222-0.162-0.020-0.036-0.034-0.078-0.041-0.122l-0-0.002c-0.013-0.076-0.020-0.163-0.020-0.256 0-0.114 0.012-0.219 0.035-0.313l0.090-0.305c0.022-0.060 0.059-0.090 0.108-0.090 0.018 0 0.033 0.002 0.044 0.006 0.029 0.003 0.061 0.014 0.092 0.031 0.035 0.021 0.059 0.040 0.074 0.058 0.015 0.019 0.023 0.046 0.023 0.079 0 0.055-0.016 0.138-0.050 0.253l-0.030 0.114c-0.046 0.168-0.076 0.302-0.089 0.397-0.007 0.033-0.010 0.082-0.010 0.148 0 0.056 0.023 0.056 0.031 0.056 0.004 0 0.015-0.002 0.039-0.014 0.031-0.010 0.063-0.027 0.099-0.049 0.098-0.062 0.198-0.144 0.297-0.242 0.086-0.083 0.218-0.233 0.393-0.448 0.007-0.007 0.032-0.035 0.075-0.083 0.003-0.004 0.007-0.007 0.010-0.011-0.011-0.049-0.022-0.113-0.030-0.178l-0.001-0.010c-0.012-0.101-0.019-0.163-0.022-0.187-0.007-0.109 0.007-0.207 0.041-0.291 0.017-0.057 0.043-0.106 0.077-0.144 0.059-0.059 0.132-0.089 0.215-0.089 0.042 0 0.087 0.012 0.136 0.036 0.062 0.031 0.108 0.068 0.137 0.112s0.045 0.098 0.045 0.16c0 0.037-0.005 0.080-0.015 0.128-0.020 0.089-0.080 0.183-0.178 0.281l-0.080 0.075c0.010 0.105 0.039 0.252 0.084 0.435 0.011 0.035 0.030 0.118 0.047 0.201l0.008 0.044c0 0.007 0.001 0.008 0.001 0.008 0.002 0.002 0.004 0.005 0.006 0.008l0.213-0.081c0.112-0.049 0.201-0.095 0.264-0.136s0.157-0.109 0.276-0.201c0.021-0.018 0.045-0.037 0.069-0.055l0.003-0.002c0.024-0.018 0.048-0.037 0.072-0.057 0.045-0.035 0.095-0.072 0.148-0.106l0.008-0.005c0.003-0.003 0.011-0.008 0.026-0.004 0.007 0.002 0.011 0.002 0.012 0.002 0.008 0 0.014 0.006 0.014 0.014 0 0.004-0.002 0.008-0.005 0.011l-0 0-0.105 0.085c-0.276 0.232-0.451 0.367-0.536 0.411l-0.255 0.12c-0.098 0.045-0.162 0.075-0.191 0.090 0.016 0.154 0.024 0.259 0.024 0.311zM17.887 7.446c0-0.001 0-0.001 0-0.002l-0 0c0.007-0.026 0.021-0.047 0.040-0.062s0.043-0.022 0.071-0.018l0.047 0.016 0.137 0.071c0.015 0.007 0.034 0.023 0.058 0.047 0.028 0.028 0.032 0.061 0.012 0.096-0.018 0.031-0.037 0.056-0.058 0.074-0.019 0.016-0.046 0.024-0.080 0.024-0.007 0-0.014-0-0.021-0.001l0.001 0c-0.085-0.014-0.147-0.055-0.185-0.122-0.021-0.028-0.029-0.070-0.022-0.124zM20.42 9.199c0.017-0.030 0.043-0.063 0.080-0.1 0.020-0.020 0.040-0.030 0.060-0.030 0.033-0.007 0.057-0.010 0.070-0.010 0.067 0 0.123 0.022 0.17 0.065 0.043 0.030 0.065 0.068 0.065 0.115 0 0.033-0.010 0.065-0.030 0.095-0.043 0.063-0.11 0.095-0.2 0.095-0.067 0-0.123-0.017-0.17-0.050-0.043-0.033-0.065-0.070-0.065-0.11 0-0.023 0.007-0.047 0.020-0.070zM12.769 3.924v-0c0.067-0.519 0.187-1.023 0.358-1.499 0.046-0.133 0.094-0.244 0.143-0.329 0.049-0.086 0.104-0.148 0.164-0.184 0.051-0.030 0.104-0.046 0.155-0.046 0.098 0 0.177 0.055 0.235 0.164 0.056 0.106 0.084 0.232 0.084 0.373 0.003 0.209-0.026 0.428-0.085 0.649s-0.14 0.429-0.239 0.618c-0.111 0.198-0.231 0.358-0.356 0.475l-0.139 0.143c-0.021 0.019-0.031 0.039-0.031 0.064-0.012 0.116-0.017 0.247-0.017 0.388l0.004 0.196c0.003 0.062 0.014 0.13 0.034 0.201 0.016 0.082 0.079 0.121 0.192 0.121 0.141 0 0.297-0.066 0.462-0.198 0.167-0.132 0.306-0.282 0.416-0.446 0.012-0.018 0.024-0.034 0.035-0.048-0.004-0.053-0.006-0.116-0.007-0.179v-0c0-0.131 0.010-0.287 0.031-0.464 0.067-0.519 0.187-1.023 0.358-1.499 0.046-0.133 0.094-0.244 0.143-0.329 0.049-0.086 0.104-0.148 0.164-0.184 0.051-0.030 0.104-0.046 0.155-0.046 0.098 0 0.177 0.055 0.235 0.164 0.056 0.106 0.084 0.232 0.084 0.373 0.003 0.209-0.026 0.428-0.085 0.649s-0.14 0.429-0.239 0.618c-0.111 0.198-0.231 0.358-0.356 0.475l-0.139 0.143c-0.021 0.019-0.031 0.039-0.031 0.064-0.012 0.116-0.017 0.246-0.017 0.388l0.004 0.196c0.003 0.062 0.014 0.13 0.034 0.201 0.016 0.082 0.079 0.121 0.192 0.121 0.141 0 0.297-0.066 0.462-0.198 0.167-0.132 0.306-0.282 0.416-0.446 0.029-0.044 0.061-0.083 0.093-0.116 0.013-0.017 0.029-0.021 0.040-0.021 0.018 0 0.035 0.007 0.049 0.021 0.005 0.005 0.005 0.012 0.001 0.018-0.023 0.032-0.045 0.061-0.063 0.085s-0.035 0.047-0.050 0.067c-0.096 0.145-0.224 0.283-0.38 0.408s-0.31 0.207-0.457 0.243c-0.038 0.012-0.085 0.018-0.138 0.018-0.048 0-0.102-0.007-0.16-0.022-0.112-0.027-0.193-0.099-0.241-0.213-0.032-0.082-0.056-0.174-0.071-0.274-0.004-0.025-0.010-0.068-0.015-0.111l-0.001-0.014c-0.093 0.133-0.213 0.259-0.356 0.374-0.156 0.126-0.31 0.207-0.457 0.243-0.072 0.022-0.174 0.027-0.299-0.004-0.112-0.027-0.193-0.099-0.241-0.213-0.032-0.082-0.056-0.174-0.071-0.274-0.023-0.157-0.035-0.305-0.035-0.442 0-0.131 0.010-0.287 0.031-0.464zM10.068 5.069c0.015-0.027 0.040-0.055 0.073-0.082 0.055-0.050 0.121-0.094 0.194-0.132 0.028-0.015 0.064-0.031 0.1-0.046l0.008-0.003c0.030-0.011 0.056-0.022 0.076-0.030l0.168-0.071 0.033-0.154c0.044-0.2 0.091-0.406 0.14-0.613 0.049-0.21 0.101-0.405 0.153-0.579 0.084-0.267 0.174-0.497 0.267-0.682 0.061-0.139 0.132-0.259 0.211-0.356 0.062-0.074 0.119-0.126 0.169-0.156 0.074-0.040 0.152-0.041 0.213-0.014 0.042 0.015 0.075 0.039 0.097 0.070l0.066 0.096c0.091 0.165 0.15 0.345 0.177 0.538 0.020 0.146 0.031 0.337 0.031 0.569v0.148c0 0.138-0.003 0.349-0.009 0.628v0.039c0 0.015 0.002 0.024 0.004 0.030 0.005 0 0.010 0.001 0.015 0.002s0.010 0.001 0.013-0.001c0.001-0.001 0.002-0.001 0.004-0.001h0c0.080-0.014 0.183-0.035 0.305-0.061l0.010-0c0.014-0.004 0.026-0.003 0.035 0.003s0.014 0.014 0.016 0.026c0.002 0.010 0.003 0.035-0.031 0.046-0.018 0.006-0.041 0.012-0.071 0.018l-0.297 0.063c-0.006 0.024-0.006 0.030-0.006 0.032v0.776c0 0.089 0.009 0.183 0.026 0.279s0.028 0.156 0.031 0.177c0.014 0.1 0.053 0.208 0.116 0.322l0.030 0.052c0.004 0.009 0.006 0.018 0.006 0.029 0 0.013-0.006 0.025-0.018 0.035-0.010 0.009-0.024 0.014-0.039 0.014-0 0-0.001 0-0.001 0h-0.057c0 0 0 0 0 0-0.004 0-0.008-0.002-0.010-0.005v0l-0.035-0.039-0.079-0.106c-0.012-0.018-0.061-0.094-0.149-0.227-0.053-0.098-0.096-0.224-0.128-0.375-0.035-0.21-0.054-0.4-0.057-0.565 0-0.049-0.003-0.123-0.009-0.222l-0.004-0.1h-0.004c-0.011 0-0.033 0.003-0.067 0.009-0.14 0.034-0.352 0.099-0.63 0.191-0.154 0.052-0.253 0.086-0.296 0.1-0.012 0.003-0.022 0.007-0.033 0.012s-0.023 0.010-0.035 0.015l-0.002 0.001c-0.017 0.097-0.028 0.161-0.033 0.197-0.009 0.047-0.019 0.117-0.030 0.209-0.009 0.042-0.019 0.113-0.030 0.214-0.006 0.094-0.013 0.163-0.022 0.21-0.003 0.019-0.004 0.048-0.004 0.085 0 0.055-0.006 0.094-0.019 0.12-0.002 0.005-0.007 0.008-0.013 0.008-0.001 0-0.001-0-0.002-0h0c-0.030-0.004-0.047-0.023-0.047-0.053-0.003-0.034-0.004-0.086-0.004-0.157 0.003-0.151 0.023-0.35 0.061-0.591 0.003-0.025 0.006-0.051 0.011-0.077 0.004-0.024 0.008-0.049 0.011-0.075 0.003-0.014 0.003-0.025 0.002-0.034-0-0.002-0.001-0.006-0.001-0.010l-0-0.001c-0.004 0-0.008 0.001-0.012 0.002l0-0c-0.154 0.055-0.283 0.119-0.386 0.191-0.025 0.020-0.061 0.053-0.107 0.099-0.016 0.013-0.026 0.037-0.031 0.071 0 0.007 0.003 0.015 0.008 0.023 0.005 0.007 0.010 0.009 0.017 0.009l0.045 0.004 0.041-0.004 0.072-0.017c0.008-0 0.013 0.001 0.040 0.014 0.005 0.002 0.008 0.007 0.008 0.012 0 0.004-0.002 0.007-0.004 0.010v0c-0.046 0.046-0.096 0.069-0.149 0.069-0.038 0-0.075-0.014-0.109-0.042-0.036-0.035-0.053-0.071-0.053-0.107 0-0.029 0.008-0.055 0.024-0.077zM10.584 15.225l-0.48 0.006c-0.015-0.064-0.025-0.155-0.031-0.274-0.005-0.109-0.008-0.237-0.008-0.366 0-0.003 0-0.006 0-0.010v0.001-0.683c-0.008-0.432-0.015-0.87-0.023-1.312s0.006-0.875 0.040-1.3c0.007-0.098 0.008-0.216 0.003-0.355s-0.010-0.263-0.014-0.372c-0.004-0.128-0.006-0.225-0.006-0.291s0.007-0.114 0.023-0.144c0.015-0.030 0.039-0.050 0.071-0.059s0.080-0.022 0.144-0.037c0.079-0.019 0.137-0.017 0.175 0.006s0.063 0.056 0.076 0.102c0.013 0.045 0.017 0.098 0.011 0.158-0.004 0.039-0.009 0.101-0.013 0.164l-0.001 0.016c-0.008 0.098-0.008 0.208-0.003 0.33s0.006 0.238 0.003 0.347c-0.004 0.12-0.006 0.228-0.006 0.324v0.285c0 0.094 0.001 0.19 0.003 0.288s0.003 0.209 0.003 0.333-0.003 0.245-0.008 0.361c-0.006 0.117-0.008 0.237-0.008 0.361-0.001 0.031-0.002 0.068-0.002 0.106 0 0.093 0.004 0.185 0.011 0.276l-0.001-0.012c0.009 0.122 0.014 0.245 0.014 0.37 0 0.060 0.004 0.16 0.011 0.299s0.014 0.283 0.020 0.432c0.006 0.149 0.009 0.286 0.011 0.412s-0.003 0.206-0.014 0.24zM12.107 14.537c-0.009 0.090-0.019 0.162-0.031 0.234l0.003-0.022c-0.012 0.074-0.033 0.14-0.061 0.202l0.002-0.005c-0.028 0.062-0.064 0.116-0.107 0.161s-0.099 0.077-0.166 0.096c-0.128 0.038-0.24 0.029-0.336-0.025s-0.178-0.14-0.245-0.257c-0.068-0.117-0.124-0.258-0.169-0.423s-0.081-0.343-0.107-0.533c-0.024-0.16-0.044-0.361-0.056-0.565l-0.001-0.019c-0.011-0.199-0.019-0.391-0.023-0.575s-0.005-0.354-0.003-0.511c0.002-0.156 0.003-0.283 0.003-0.381 0-0.113 0.003-0.236 0.008-0.369s0.016-0.265 0.031-0.395c0.015-0.13 0.035-0.253 0.059-0.369s0.055-0.216 0.093-0.299c0.030-0.075 0.059-0.136 0.087-0.183s0.074-0.093 0.138-0.138c0.056-0.041 0.109-0.076 0.158-0.104s0.118-0.027 0.209 0.003c0.083 0.026 0.15 0.052 0.203 0.076s0.098 0.065 0.135 0.121c0.011 0.019 0.016 0.032 0.014 0.039s-0.007 0.017-0.014 0.028c-0.008 0.011-0.017 0.025-0.028 0.039s-0.019 0.039-0.023 0.073c0 0.004-0.003 0.016-0.008 0.037s-0.011 0.043-0.017 0.068c-0.012 0.052-0.021 0.085-0.030 0.118l0.005-0.019c-0.053 0.041-0.091 0.045-0.116 0.011s-0.042-0.081-0.054-0.141c-0.020-0.114-0.033-0.176-0.047-0.238l0.010 0.054c-0.013-0.062-0.035-0.099-0.065-0.11l0.006-0.006c-0.064 0.011-0.114 0.071-0.15 0.181s-0.063 0.236-0.082 0.381c-0.019 0.145-0.030 0.291-0.034 0.437s-0.004 0.263 0 0.35c0.008 0.335 0.010 0.666 0.008 0.993-0 0.011-0 0.025-0 0.038 0 0.337 0.022 0.668 0.063 0.993l-0.004-0.038c0.007 0.075 0.015 0.174 0.023 0.296 0.011 0.179 0.021 0.31 0.033 0.442l-0.004-0.061c0.011 0.132 0.026 0.258 0.045 0.378s0.045 0.216 0.079 0.288c0.034 0.071 0.072 0.118 0.116 0.141s0.084 0.020 0.121-0.008c0.038-0.028 0.071-0.083 0.099-0.164s0.046-0.191 0.054-0.33c0.004-0.068 0.015-0.114 0.034-0.138s0.039-0.032 0.062-0.023c0.023 0.009 0.042 0.030 0.059 0.062s0.023 0.069 0.020 0.11zM13.066 10.137l-0.412 0.102 0.006 0.53c0.12 0 0.205 0.005 0.254 0.014s0.077 0.023 0.085 0.040c0.007 0.017 0.006 0.035-0.006 0.054s-0.015 0.038-0.011 0.056l-0.333 0.051c-0.004 0.188-0.003 0.366 0.003 0.533s0.014 0.343 0.025 0.527c0.011 0.177 0.018 0.383 0.018 0.591 0 0.051-0 0.102-0.001 0.153l0-0.008c-0.005 0.292-0.011 0.546-0.019 0.8l0.002-0.073c-0.008 0.239-0.015 0.471-0.023 0.697s-0.008 0.442 0 0.649c0.053 0.004 0.093 0.001 0.121-0.008 0.033-0.011 0.058-0.020 0.083-0.031l-0.007 0.003c0.023-0.009 0.048-0.017 0.076-0.023s0.069-0.001 0.121 0.014l0.017 0.259c-0.056 0.049-0.119 0.077-0.189 0.085-0.098 0.011-0.178 0.023-0.257 0.037l0.023-0.003c-0.053 0.011-0.094 0.021-0.124 0.028s-0.058 0.012-0.085 0.014c-0.026 0.002-0.056-0.001-0.090-0.008s-0.079-0.023-0.135-0.045c-0.008-0.015-0.013-0.061-0.017-0.138s-0.006-0.17-0.006-0.279c0-0.109 0.002-0.227 0.006-0.353s0.007-0.246 0.011-0.361c0.004-0.115 0.007-0.215 0.011-0.302s0.007-0.145 0.011-0.175c0.013-0.095 0.023-0.21 0.028-0.326l0-0.007c0.004-0.105 0.005-0.21 0.003-0.313s-0.006-0.208-0.011-0.313c-0.006-0.105-0.010-0.218-0.014-0.339-0.008-0.286-0.014-0.573-0.020-0.86s-0.008-0.576-0.008-0.866c0-0.071-0.004-0.133-0.011-0.183s-0.013-0.114-0.017-0.189c0-0.075 0.009-0.12 0.028-0.135 0.075-0.004 0.137-0.007 0.186-0.008s0.096-0.004 0.141-0.006c0.045-0.002 0.075-0.003 0.090-0.003 0.041-0.004 0.098-0.012 0.169-0.025s0.143-0.008 0.214 0.014c0.019 0.008 0.038 0.025 0.056 0.054s0.021 0.054 0.006 0.076zM14.189 8.758c-0.021-0.028-0.038-0.066-0.052-0.114-0.016-0.070-0.024-0.133-0.025-0.188-0.221 0.255-0.476 0.462-0.758 0.615-0.058 0.027-0.109 0.048-0.152 0.061-0.029 0.010-0.063 0.016-0.097 0.016-0.001 0-0.001 0-0.002 0h0c-0 0-0.001 0-0.001 0-0.067 0-0.13-0.020-0.182-0.055l0.001 0.001c-0.054-0.035-0.096-0.084-0.124-0.141l-0.001-0.002c-0.028-0.069-0.038-0.14-0.031-0.212 0.005-0.057 0.014-0.117 0.029-0.178-0.198 0.208-0.421 0.38-0.662 0.511-0.058 0.027-0.109 0.048-0.152 0.061-0.029 0.010-0.063 0.016-0.097 0.016-0.001 0-0.001 0-0.002 0h0c-0 0-0.001 0-0.001 0-0.067 0-0.13-0.020-0.182-0.055l0.001 0.001c-0.054-0.035-0.096-0.084-0.124-0.141l-0.001-0.002c-0.028-0.069-0.038-0.14-0.031-0.212 0.002-0.024 0.005-0.049 0.009-0.076l-0.114 0.16c-0.050 0.071-0.119 0.137-0.203 0.198-0.066 0.042-0.129 0.062-0.188 0.062-0.096 0-0.175-0.029-0.234-0.086s-0.092-0.131-0.099-0.221c-0.003-0.081 0-0.17 0.010-0.267 0.023-0.17 0.082-0.392 0.175-0.661l0.030-0.094 0.006-0.040c-0.001 0-0.002 0.001-0.004 0.002l-0.001 0c-0.008 0.003-0.015 0.006-0.021 0.009l0.002-0.001c-0.064 0.071-0.112 0.125-0.142 0.162-0.074 0.107-0.126 0.185-0.159 0.238-0.132 0.215-0.266 0.469-0.398 0.757-0.032 0.074-0.049 0.144-0.049 0.209-0.003 0.073-0.012 0.187-0.025 0.34 0 0.027-0.002 0.046-0.006 0.058-0.011 0.051-0.041 0.083-0.090 0.094l-0.050 0.010-0.033 0c-0.063 0-0.124-0.021-0.183-0.062-0.048-0.029-0.068-0.071-0.061-0.123-0-0.076 0.001-0.132 0.005-0.169 0.023-0.317 0.052-0.594 0.085-0.824 0.017-0.096 0.038-0.238 0.065-0.434l0.010-0.188v-0.049c0.004-0.055 0.015-0.092 0.036-0.114s0.059-0.036 0.117-0.039h0c0.080 0 0.144 0.016 0.193 0.047 0.050 0.029 0.076 0.073 0.076 0.131 0.001 0.027 0.002 0.058 0.002 0.089 0 0.126-0.012 0.25-0.034 0.37l0.002-0.012-0.015 0.114c-0.007 0.049-0.014 0.088-0.022 0.127l0.002-0.011-0.027 0.192 0.017-0.024c0.094-0.161 0.146-0.252 0.158-0.277l0.16-0.275c0.073-0.123 0.156-0.235 0.246-0.332 0.020-0.024 0.054-0.056 0.101-0.096 0.028-0.021 0.054-0.037 0.078-0.047 0.013-0.004 0.027-0.006 0.045-0.006 0.067 0 0.090 0.038 0.098 0.070 0.017 0.057 0.025 0.109 0.025 0.153 0 0.109-0.002 0.193-0.005 0.25-0.013 0.222-0.025 0.385-0.035 0.484l-0.030 0.329 0 0.039c0 0.016 0.003 0.030 0.008 0.040 0.032-0.005 0.072-0.026 0.119-0.061 0.058-0.051 0.101-0.093 0.128-0.123l0.303-0.381 0.003-0.009c0.002-0.005 0.004-0.010 0.006-0.015 0.054-0.127 0.123-0.234 0.205-0.316 0.084-0.084 0.17-0.126 0.257-0.126 0.056 0 0.102 0.014 0.136 0.040s0.053 0.066 0.053 0.113c0 0.035-0.007 0.069-0.021 0.1-0.023 0.053-0.057 0.115-0.101 0.182-0.070 0.114-0.154 0.207-0.248 0.278-0.015 0.009-0.024 0.021-0.030 0.038-0.003 0.015-0.013 0.060-0.030 0.133-0.016 0.069-0.024 0.136-0.025 0.199 0.013 0.009 0.028 0.013 0.046 0.013 0.045 0 0.107-0.016 0.184-0.049 0.246-0.105 0.473-0.265 0.674-0.476 0.017-0.017 0.063-0.071 0.135-0.158 0.052-0.116 0.117-0.213 0.192-0.288 0.084-0.084 0.17-0.126 0.257-0.126 0.056 0 0.102 0.014 0.136 0.040s0.053 0.066 0.053 0.113c0 0.035-0.007 0.069-0.021 0.1-0.023 0.053-0.057 0.115-0.101 0.182-0.070 0.114-0.154 0.207-0.248 0.278-0.015 0.009-0.024 0.021-0.030 0.038-0.003 0.015-0.013 0.060-0.030 0.133-0.016 0.069-0.024 0.136-0.025 0.199 0.013 0.009 0.028 0.013 0.046 0.013 0.045 0 0.107-0.016 0.184-0.049 0.246-0.105 0.473-0.265 0.674-0.476 0.020-0.020 0.077-0.087 0.169-0.2 0.023-0.103 0.070-0.198 0.14-0.283 0.099-0.126 0.218-0.19 0.355-0.19 0.095 0 0.181 0.021 0.256 0.062l0.027 0.015 0.063-0.558c0.046-0.382 0.137-0.796 0.27-1.232 0.133-0.437 0.272-0.74 0.412-0.9 0.108-0.115 0.236-0.115 0.358-0.022 0.041 0.028 0.078 0.076 0.109 0.145 0.057 0.134 0.086 0.282 0.086 0.44 0 0.346-0.069 0.705-0.205 1.067-0.117 0.303-0.297 0.586-0.537 0.843-0.030 0.034-0.081 0.080-0.156 0.141l-0.065 0.056c-0.003 0.029-0.006 0.062-0.009 0.099-0.003 0.039-0.005 0.087-0.005 0.144l-0.005 0.255 0.005 0.254c0 0.049 0.005 0.098 0.015 0.147 0.013 0.044 0.024 0.077 0.034 0.096 0.019 0.041 0.042 0.070 0.070 0.087s0.063 0.024 0.106 0.020c0.080-0.013 0.146-0.031 0.195-0.054 0.169-0.078 0.313-0.181 0.435-0.306l0-0c0.083-0.079 0.18-0.19 0.288-0.328l0.105-0.13c0.012-0.018 0.026-0.029 0.042-0.030s0.029 0.005 0.043 0.019c0.003 0.003 0.004 0.006 0.004 0.010v0.005c0 0.010-0.003 0.024-0.020 0.038-0.011 0.009-0.015 0.015-0.016 0.018-0.141 0.185-0.262 0.329-0.362 0.432-0.16 0.16-0.321 0.277-0.478 0.347-0.084 0.040-0.177 0.061-0.275 0.061-0.038 0-0.065-0.002-0.083-0.005-0.065-0.014-0.116-0.035-0.151-0.063-0.112-0.085-0.181-0.181-0.204-0.287-0.013-0.064-0.027-0.163-0.040-0.296l-0.007-0.070c-0.013 0.014-0.016 0.019-0.017 0.020-0.031 0.040-0.098 0.137-0.165 0.234l-0.040 0.062-0.115 0.15c-0.145 0.146-0.286 0.133-0.402-0.040zM15.661 15.169c-0.030 0.019-0.066 0.034-0.107 0.045-0.038 0.011-0.083 0.018-0.129 0.020l-0.001 0c-0.045 0.002-0.081-0.001-0.107-0.009-0.079-0.019-0.149-0.043-0.209-0.073s-0.111-0.070-0.152-0.118c-0.040-0.046-0.080-0.097-0.117-0.149l-0.004-0.006c-0.033-0.046-0.064-0.099-0.090-0.154l-0.003-0.006c-0.026-0.056-0.049-0.119-0.068-0.189s-0.036-0.15-0.051-0.24c-0.030-0.165-0.050-0.324-0.059-0.477-0.007-0.102-0.016-0.276-0.024-0.45l-0.002-0.050c0-0.158-0.003-0.291-0.009-0.401-0.004-0.054-0.009-0.163-0.013-0.272l-0.001-0.041c-0.004-0.1-0.004-0.202 0-0.307s0.011-0.235 0.023-0.389l0.028-0.282c0.015-0.15 0.032-0.274 0.053-0.396l-0.005 0.035c0.027-0.169 0.054-0.301 0.084-0.431l-0.008 0.041c0.030-0.132 0.068-0.254 0.113-0.367s0.098-0.212 0.158-0.296c0.060-0.085 0.13-0.142 0.209-0.172 0.064-0.026 0.141-0.029 0.231-0.008s0.162 0.046 0.214 0.076c0.026 0.015 0.044 0.032 0.054 0.051s0.012 0.035 0.008 0.048c-0.004 0.013-0.012 0.024-0.025 0.031s-0.031 0.008-0.054 0c-0.019-0.007-0.031-0.017-0.037-0.028s-0.014-0.022-0.023-0.031v0c-0.009-0.009-0.021-0.016-0.033-0.020l-0.001-0c-0.013-0.004-0.037 0-0.070 0.011-0.094 0.105-0.166 0.226-0.214 0.361-0.044 0.117-0.081 0.255-0.105 0.398l-0.002 0.013c-0.019 0.11-0.036 0.25-0.047 0.391l-0.001 0.015c-0.009 0.132-0.022 0.246-0.037 0.344-0.015 0.143-0.025 0.275-0.031 0.395-0.003 0.066-0.005 0.143-0.005 0.221 0 0.052 0.001 0.104 0.002 0.156l-0-0.008c0.004 0.126 0.009 0.261 0.017 0.406s0.017 0.311 0.028 0.499c0.007 0.064 0.017 0.128 0.028 0.192s0.017 0.122 0.017 0.175c0.004 0.075 0.010 0.178 0.020 0.307s0.025 0.262 0.048 0.398c0.023 0.135 0.053 0.261 0.090 0.378s0.088 0.197 0.152 0.243c0.038 0.026 0.069 0.040 0.093 0.042s0.048 0.001 0.071-0.003c0.023-0.004 0.045-0.007 0.068-0.008s0.049 0.005 0.079 0.020c0 0.026-0.015 0.049-0.045 0.068zM17.134 11.829c0 0.102-0.008 0.227-0.023 0.375s-0.037 0.301-0.065 0.457c-0.033 0.181-0.070 0.333-0.115 0.481l0.008-0.030c-0.043 0.145-0.093 0.266-0.15 0.364-0.015 0.026-0.025 0.051-0.031 0.073s-0.012 0.047-0.020 0.073c-0.011 0.038-0.023 0.059-0.034 0.065s-0.026 0.025-0.045 0.059l-0.085 0.152c-0.019 0.034-0.028 0.066-0.028 0.096s0.009 0.066 0.028 0.107c0.019 0.041 0.047 0.103 0.085 0.186 0.029 0.039 0.053 0.084 0.072 0.131l0.001 0.004c0.022 0.058 0.043 0.105 0.066 0.15l-0.004-0.009c0.011 0.023 0.032 0.064 0.062 0.124s0.060 0.123 0.090 0.189c0.020 0.040 0.045 0.099 0.069 0.16l0.007 0.021c0.021 0.055 0.031 0.089 0.031 0.104-0.011 0.023-0.036 0.039-0.073 0.048s-0.081 0.014-0.13 0.014c-0.049 0-0.096-0.002-0.141-0.006-0.043-0.003-0.080-0.007-0.117-0.012l0.010 0.001-0.22-0.97-0.023 0.948c-0.019 0.011-0.056 0.021-0.11 0.028s-0.114 0.012-0.178 0.014c-0.064 0.002-0.125 0-0.183-0.006s-0.099-0.014-0.121-0.025c-0.008-0.049-0.014-0.147-0.020-0.293s-0.008-0.304-0.008-0.471v-0.474c0-0.149 0.002-0.251 0.006-0.307 0.019-0.425 0.033-0.871 0.042-1.337s0.012-0.914 0.008-1.343c0-0.041 0.003-0.112 0.008-0.212s0.012-0.201 0.020-0.305c0.008-0.103 0.015-0.195 0.023-0.274s0.015-0.12 0.023-0.124c0.011-0.011 0.029-0.017 0.054-0.017s0.059-0.004 0.104-0.011c0.064-0.007 0.119 0.003 0.166 0.031 0.035 0.022 0.080 0.047 0.127 0.071l0.012 0.005c0.094 0.053 0.16 0.090 0.197 0.113s0.066 0.043 0.085 0.062c0.019 0.019 0.039 0.041 0.059 0.068s0.063 0.068 0.127 0.124c0.004 0.004 0.013 0.020 0.028 0.048s0.031 0.058 0.048 0.090c0.012 0.022 0.027 0.053 0.041 0.084l0.004 0.009c0.013 0.030 0.020 0.049 0.020 0.056 0.030 0.102 0.063 0.206 0.099 0.313 0.034 0.1 0.055 0.214 0.059 0.334l0 0.002c0.004 0.079 0.011 0.146 0.023 0.2s0.015 0.118 0.011 0.189zM18.143 10.137l-0.412 0.102 0.006 0.53c0.12 0 0.205 0.005 0.254 0.014s0.077 0.023 0.085 0.040c0.007 0.017 0.006 0.035-0.006 0.054s-0.015 0.038-0.011 0.056l-0.333 0.051c-0.004 0.188-0.003 0.366 0.003 0.533s0.014 0.343 0.025 0.527c0.015 0.245 0.021 0.49 0.017 0.736s-0.009 0.489-0.017 0.728c-0.008 0.239-0.015 0.471-0.023 0.697s-0.008 0.442 0 0.649c0.053 0.004 0.093 0.001 0.121-0.008 0.033-0.011 0.058-0.020 0.083-0.031l-0.007 0.003c0.023-0.009 0.048-0.017 0.076-0.023s0.069-0.001 0.121 0.014l0.017 0.259c-0.056 0.049-0.119 0.077-0.189 0.085s-0.148 0.019-0.234 0.034c-0.053 0.011-0.094 0.021-0.124 0.028s-0.058 0.012-0.085 0.014c-0.026 0.002-0.056-0.001-0.090-0.008s-0.079-0.023-0.135-0.045c-0.008-0.015-0.013-0.061-0.017-0.138s-0.006-0.17-0.006-0.279c0-0.109 0.002-0.227 0.006-0.353s0.007-0.246 0.011-0.361c0.004-0.115 0.007-0.215 0.011-0.302s0.007-0.145 0.011-0.175c0.015-0.117 0.024-0.228 0.028-0.333s0.005-0.21 0.003-0.313c-0.002-0.103-0.006-0.208-0.011-0.313-0.005-0.079-0.010-0.197-0.014-0.315l-0.001-0.023c-0.008-0.286-0.014-0.573-0.020-0.86-0.005-0.258-0.008-0.561-0.008-0.866 0-0 0-0 0-0v0c0-0.071-0.004-0.133-0.011-0.183s-0.013-0.114-0.017-0.189c0-0.075 0.009-0.12 0.028-0.135 0.075-0.004 0.137-0.007 0.186-0.008s0.096-0.004 0.141-0.006c0.025-0.001 0.056-0.002 0.088-0.003l0.002-0c0.041-0.004 0.098-0.012 0.169-0.025s0.143-0.008 0.214 0.014c0.019 0.008 0.038 0.025 0.056 0.054s0.021 0.054 0.006 0.076zM19.585 15.132c0.009 0.028-0.005 0.057-0.042 0.087-0.004 0.004-0.025 0.006-0.065 0.006h-0.13c-0.002 0-0.004 0-0.006 0-0.045 0-0.089-0.001-0.133-0.003l0.006 0c-0.041-0.002-0.068-0.005-0.079-0.008-0.053-0.015-0.076-0.033-0.071-0.054s0.007-0.050 0.003-0.087c-0.004-0.045-0.005-0.115-0.003-0.209s-0.001-0.175-0.008-0.243l-0.463 0.011v0.023c-0.004 0.004-0.009 0.025-0.017 0.065-0.007 0.033-0.014 0.078-0.019 0.124l-0.001 0.008c-0.006 0.049-0.011 0.096-0.017 0.141s-0.008 0.075-0.008 0.090c0.004 0.034 0.007 0.064 0.011 0.090s-0.024 0.045-0.085 0.056c-0.038 0.008-0.076 0.011-0.116 0.011s-0.069-0.013-0.087-0.039c-0.008-0.011-0.009-0.052-0.003-0.121s0.014-0.153 0.025-0.251c0.011-0.098 0.025-0.203 0.042-0.316s0.033-0.221 0.048-0.324c0.019-0.133 0.034-0.227 0.052-0.32l-0.007 0.044c0.015-0.081 0.024-0.136 0.028-0.166 0.009-0.012 0.050-0.263 0.088-0.514l0.028-0.222c0.046-0.317 0.090-0.561 0.142-0.803l-0.015 0.083c0.034-0.173 0.071-0.353 0.113-0.542 0.010-0.019 0.052-0.211 0.091-0.404l0.028-0.165c0.015-0.053 0.052-0.247 0.086-0.442l0.019-0.131c0.023-0.123 0.050-0.307 0.072-0.493l0.004-0.046c0.026-0.008 0.047-0.015 0.062-0.023l0.040-0.020c0.011-0.006 0.023-0.009 0.037-0.011s0.031 0.003 0.054 0.014c0.090 0.038 0.153 0.119 0.189 0.245s0.057 0.272 0.065 0.437c0.003 0.068 0.005 0.148 0.005 0.228 0 0.12-0.004 0.24-0.011 0.358l0.001-0.016c-0.011 0.192-0.011 0.348 0 0.468 0.019 0.169 0.023 0.328 0.011 0.477s-0.013 0.306-0.006 0.471c0.007 0.15 0.008 0.302 0.003 0.454s-0.003 0.309 0.008 0.471c0.004 0.064 0.008 0.161 0.014 0.291s0.011 0.266 0.017 0.409c0.006 0.143 0.008 0.278 0.008 0.406s-0.004 0.222-0.011 0.282c-0.008 0.053-0.007 0.093 0.003 0.121zM22.149 15.214c-0.053 0.004-0.113 0.008-0.18 0.011-0.075 0.004-0.129-0.001-0.161-0.014s-0.067-0.035-0.104-0.065c-0.008-0.064-0.016-0.153-0.025-0.268s-0.019-0.234-0.028-0.358c-0.009-0.124-0.019-0.243-0.028-0.355-0.004-0.029-0.011-0.117-0.017-0.204l-0.003-0.049c-0.007-0.056-0.012-0.125-0.014-0.194l-0-0.004c-0.002-0.064-0.005-0.133-0.009-0.209-0.008-0.147-0.014-0.293-0.020-0.44s-0.010-0.29-0.014-0.429c0-0.011-0.001-0.048-0.003-0.11-0.002-0.060-0.003-0.13-0.003-0.201 0-0.006 0-0.011 0-0.017v0.001-0.53c0-0.079-0.001-0.145-0.003-0.197s-0.003-0.081-0.003-0.085c-0.011 0.011-0.025 0.062-0.042 0.152-0.010 0.040-0.030 0.153-0.048 0.267l-0.009 0.066c-0.021 0.132-0.040 0.276-0.059 0.432s-0.037 0.304-0.054 0.443c-0.004 0.011-0.019 0.138-0.033 0.265l-0.009 0.105c-0.011 0.107-0.019 0.18-0.023 0.217-0.013 0.178-0.030 0.331-0.052 0.483l0.004-0.037c-0.021 0.147-0.035 0.291-0.042 0.434 0 0.023-0.003 0.079-0.009 0.169s-0.012 0.184-0.020 0.282c-0.008 0.098-0.014 0.188-0.020 0.271s-0.010 0.128-0.014 0.135c-0.019 0.011-0.051 0.021-0.096 0.028s-0.093 0.013-0.144 0.017c-0.051 0.004-0.097 0.004-0.138 0s-0.068-0.009-0.079-0.017c-0.008-0.004-0.015-0.041-0.023-0.113-0.004-0.029-0.013-0.121-0.021-0.213l-0.004-0.055c-0.007-0.073-0.016-0.194-0.024-0.315l-0.002-0.035c-0.008-0.126-0.015-0.248-0.023-0.367s-0.014-0.224-0.020-0.316c-0.006-0.092-0.010-0.157-0.014-0.195-0.008-0.124-0.016-0.274-0.025-0.448s-0.019-0.353-0.028-0.536c-0.009-0.182-0.019-0.36-0.028-0.533s-0.020-0.322-0.031-0.446c-0.073 0.68-0.115 1.013-0.159 1.344l0.041-0.374c-0.015 0.124-0.030 0.247-0.045 0.37s-0.029 0.235-0.042 0.338c-0.006 0.035-0.017 0.126-0.027 0.217l-0.004 0.048c-0.008 0.073-0.013 0.121-0.017 0.144l-0.147 1.365c-0.008 0.053-0.020 0.089-0.037 0.11s-0.044 0.029-0.082 0.025c-0.015-0.004-0.034-0.002-0.056 0.006s-0.043 0.002-0.062-0.017c-0.004-0.007 0-0.073 0.011-0.197s0.027-0.287 0.048-0.488c0.039-0.389 0.067-0.627 0.097-0.863l-0.018 0.172c0.177-1.648 0.213-1.927 0.249-2.206l-0.148 1.391c0.116-1.026 0.154-1.319 0.194-1.611l-0.084 0.756c0.203-1.77 0.241-2.045 0.279-2.321l-0.172 1.514c0.011-0.075 0.021-0.148 0.028-0.217s0.015-0.138 0.023-0.206c0.034-0.248 0.066-0.452 0.096-0.612s0.054-0.255 0.073-0.285c0.079-0.023 0.143-0.016 0.192 0.020s0.079 0.091 0.090 0.166c0.034 0.207 0.067 0.452 0.099 0.736 0.020 0.142 0.051 0.446 0.078 0.751l0.009 0.132c0.026 0.305 0.050 0.603 0.071 0.894s0.037 0.546 0.048 0.764c0.004-0.004 0.013-0.045 0.028-0.124s0.031-0.177 0.048-0.293c0.017-0.117 0.036-0.244 0.056-0.384 0 0.027 0.020-0.109 0.039-0.245l0.017-0.153c0.017-0.126 0.031-0.238 0.042-0.336s0.019-0.164 0.023-0.197c0.011-0.113 0.026-0.244 0.045-0.395s0.040-0.306 0.062-0.465c0.023-0.16 0.045-0.315 0.068-0.465s0.043-0.28 0.062-0.389c0.083-0.030 0.151-0.037 0.206-0.020s0.091 0.039 0.11 0.065c0.011 0.011 0.024 0.044 0.040 0.099 0.013 0.045 0.028 0.107 0.040 0.171l0.002 0.015c0.013 0.070 0.024 0.143 0.034 0.22s0.014 0.144 0.014 0.2c0 0.026 0.005 0.050 0.014 0.071s0.012 0.052 0.008 0.093c-0.004 0.038 0.001 0.128 0.014 0.271s0.027 0.304 0.042 0.482c0.015 0.179 0.030 0.356 0.045 0.533s0.024 0.318 0.028 0.423c0.004 0.143 0.016 0.291 0.037 0.443s0.031 0.298 0.031 0.437l0.017 0.44c0.007 0.169 0.020 0.354 0.037 0.553s0.027 0.389 0.031 0.57c-0.030 0.056-0.071 0.087-0.124 0.090zM22.859 9.333c-0.043 0.063-0.11 0.095-0.2 0.095-0.067 0-0.123-0.017-0.17-0.050-0.043-0.033-0.065-0.070-0.065-0.11 0-0.023 0.007-0.047 0.020-0.070 0.017-0.030 0.043-0.063 0.080-0.1 0.020-0.020 0.040-0.030 0.060-0.030 0.033-0.007 0.057-0.010 0.070-0.010 0.066 0 0.123 0.022 0.17 0.065 0.043 0.030 0.065 0.068 0.065 0.115 0 0.033-0.010 0.065-0.030 0.095z"></path>
</symbol>
    <symbol id="icon-i" viewBox="0 0 32 32">
      <path fill="#d41443" style="fill:var(--color1, #d41443)" d="M13.714 1.173c-2.542.674-3.05 2.866-3.05 15.007v14.164h12.032l-.508-14.669C21.68.331 21.002-.849 13.715 1.174z"/>
    </symbol>
    <symbol id="icon-e" viewBox="0 0 32 32">
      <path fill="#d41443" style="fill:var(--color1, #d41443)" d="M4.866 3.869c-.508 1.349-.678 7.925-.339 14.838l.508 12.477H16.05c10.168 0 11.015-.337 11.524-3.878.508-3.204-.169-3.709-5.423-3.709-3.389 0-6.101-.843-6.101-1.686 0-1.012 2.373-1.686 5.084-1.686 3.898 0 5.084-.674 5.084-3.372s-1.186-3.372-5.084-3.372c-2.712 0-5.084-.843-5.084-1.686 0-1.012 2.203-1.686 4.915-1.686 4.745 0 7.965-3.71 5.931-6.913C25.371.667 5.882 1.341 4.865 3.87z"/>
    </symbol>
    <symbol id="icon-c" viewBox="0 0 32 32">
      <path fill="#d41443" style="fill:var(--color1, #d41443)" d="M11.759 1.773C5.856 4.087 3.53 8.18 3.351 15.656 3.172 28.471 8.36 32.92 21.776 31.674c5.188-.356 6.082-1.246 6.082-4.983 0-3.916-.715-4.45-5.724-3.916-4.293.356-5.903-.178-6.797-3.026-1.61-5.517 1.789-9.967 7.513-9.967 3.399 0 5.188-1.068 5.545-3.382 1.252-5.695-7.871-8.365-16.636-4.628z"/>
    </symbol>
    <symbol id="icon-r" viewBox="0 0 32 32">
      <path fill="#d41443" style="fill:var(--color1, #d41443)" d="M3.352 1.005c-.847.674-1.356 7.588-1.356 15.344v14.164l5.423-.506c4.237-.337 5.762-1.518 6.609-4.721l1.017-4.215 1.356 4.553c1.017 3.878 2.203 4.721 6.609 4.721 7.287 0 8.135-1.18 5.084-7.082-1.864-3.71-2.203-5.564-.847-6.913 2.203-2.192 2.373-9.611.339-12.815C25.891.837 5.555-1.355 3.352 1.006zm13.897 9.105c0 1.855-.678 3.372-1.695 3.372-.847 0-1.695-1.518-1.695-3.372s.847-3.372 1.695-3.372c1.017 0 1.695 1.518 1.695 3.372z"/>
    </symbol>
    <symbol id="icon-a" viewBox="0 0 32 32">
      <path fill="#d41443" style="fill:var(--color1, #d41443)" d="M11.499 1.005C8.449 1.848.653 24.274 2.178 27.983c1.356 3.372 8.982 3.035 11.015-.506 1.525-2.867 1.695-2.867 4.745 0 3.898 3.372 12.371 3.878 12.371.674 0-1.012-1.695-7.756-3.898-14.669C23.022 2.353 22.005.836 18.446.499c-2.372 0-5.423.169-6.948.506zm4.745 15.344c-.508 1.686-.847.675-.847-2.023 0-2.866.339-4.047.847-3.035.339 1.18.339 3.541 0 5.058z"/>
    </symbol>
    <symbol id="icon-m" viewBox="0 0 32 32">
      <path fill="#d41443" style="fill:var(--color1, #d41443)" d="M2.907 1.915C1.458 2.396.814 6.881.814 16.171v13.455h4.669c4.025 0 4.83-.801 5.474-4.485.644-4.165.644-4.165 1.932-.801.644 2.082 2.254 3.684 3.381 3.684 1.288 0 3.059-1.602 3.864-3.684 1.288-3.364 1.449-3.364 1.449.961.161 4.005.644 4.485 5.152 4.005l4.991-.481.161-13.295c.322-12.334.161-13.295-3.22-14.096-5.152-1.281-9.499 1.762-10.948 7.689l-1.127 5.286-1.771-5.606C12.567 1.274 9.186-.648 2.907 1.915z"/>
    </symbol>

    <symbol id="icon-arrow" viewBox="0 0 19 32">
<path fill="none" stroke="#d41443" style="stroke: var(--color1, #d41443)" stroke-linejoin="round" stroke-linecap="round" stroke-miterlimit="4" stroke-width="6.4" d="M3.2 3.2l12.8 12.8-12.8 12.8"></path>
</symbol>
    <symbol id="icon-menu24px" viewBox="0 0 48 32">
<path d="M0 5.333v-5.333h48v5.333h-48zM0 18.667h48v-5.333h-48v5.333zM0 32h48v-5.333h-48v5.333z"></path>
</symbol>
    <symbol id="cross" viewBox="0 0 32 32">
      <path d="M32 3.223 28.777 0 16 12.777 3.223 0 0 3.223 12.777 16 0 28.777 3.223 32 16 19.223 28.777 32 32 28.777 19.223 16 32 3.223z"/>
    </symbol>
    <symbol id="icon-logo-layout" viewBox="0 0 32 32">
<path fill="#fff" style="fill: var(--color1, #fff)" d="M31.36 16.32c0 8.66-6.877 15.68-15.36 15.68s-15.36-7.020-15.36-15.68c0-8.66 6.877-15.68 15.36-15.68s15.36 7.020 15.36 15.68z"></path>
<path fill="#d41443" style="fill: var(--color2, #d41443)" d="M11.849 0.562c-7.406 2.243-11.849 8.073-11.849 15.442 0 6.023 3.091 11.277 8.179 13.904 2.64 1.346 3.027 0.384 0.58-1.474-1.739-1.41-2.061-2.050-2.061-4.421 0-1.666-0.386-3.011-0.966-3.524-1.159-0.961-1.288-3.46-0.129-4.357 0.451-0.384 0.902-1.666 0.966-2.819 0.322-4.229 4.894-8.201 9.467-8.201s9.145 3.973 9.466 8.201c0.064 1.153 0.515 2.435 0.966 2.819 1.159 0.897 1.030 3.396-0.129 4.357-0.58 0.513-0.966 1.858-0.966 3.524 0 2.371-0.322 3.011-2.061 4.421-2.705 2.114-1.932 2.883 1.095 1.025 4.25-2.627 7.406-8.33 7.406-13.391 0-10.124-10.561-18.325-19.963-15.506z"></path>
<path fill="#d41443" style="fill: var(--color2, #d41443)" d="M12.686 7.994c-1.159 0.513-2.125 1.153-2.125 1.538 0 0.705 3.477 1.986 5.474 1.986s5.474-1.281 5.474-1.986c0-0.769-3.993-2.499-5.603-2.499-0.644 0.064-2.125 0.449-3.22 0.961z"></path>
<path fill="#d41443" style="fill: var(--color2, #d41443)" d="M9.016 11.967c-0.193 0.256-0.386 1.089-0.386 1.922 0 1.474 0.064 1.474 7.406 1.474s7.406 0 7.406-1.474c0-2.178-0.58-2.435-2.64-1.41-2.318 1.217-7.213 1.217-9.531 0-1.030-0.513-1.996-0.705-2.254-0.513z"></path>
<path fill="#d41443" style="fill: var(--color2, #d41443)" d="M7.148 17.669c-1.030 1.089 0.708 1.538 5.731 1.538h5.409v2.243c0 1.217 0.322 2.243 0.644 2.243 0.386 0 0.644-0.961 0.644-2.178 0-2.114 0.129-2.243 2.576-2.435 1.417-0.128 2.576-0.513 2.576-0.833 0-0.705-16.872-1.281-17.581-0.577z"></path>
<path fill="#d41443" style="fill: var(--color2, #d41443)" d="M8.629 23.308c0 3.524 1.224 4.229 7.406 4.229s7.406-0.705 7.406-4.229c0-1.538-0.322-2.178-0.966-2.178-0.58 0-0.966 0.577-0.966 1.538 0 3.588-4.894 3.908-5.603 0.384-0.322-1.858-0.515-1.922-3.8-1.922h-3.477v2.178z"></path>
<path fill="#d41443" style="fill: var(--color2, #d41443)" d="M12.622 30.548c0.386 2.050 6.955 1.858 6.955-0.128 0-0.705-0.837-0.961-3.606-0.961-3.027 0-3.542 0.192-3.349 1.089z"></path>
</symbol>
</defs>
</svg>
